PathFileType	4	(X/Y/Z)	C:\Data Capture\Research\archery\Archery pilot2.trc
DataRate	CameraRate	NumFrames	NumMarkers	Units	OrigDataRate	OrigDataStartFrame	OrigNumFrames
100.00	100.00	      38	3	mm	100.00	1313	      1500
Frame#	Time	Marker 1			Marker 2			Marker 3			
		X1	Y1	Z1	X2	Y2	Z2	X3	Y3	Z3	

1313	13.120	232.10037	453.54489	741.51105	196.66154	422.61740	653.27753	112.18456	371.42181	717.02692	
1314	13.130	232.10960	453.58582	741.54462	196.65369	422.67087	653.30255	112.24916	371.55991	717.05151	
1315	13.140	232.11194	453.61212	741.56091	196.63081	422.71863	653.32434	112.30679	371.69116	717.08221	
1316	13.150	232.11075	453.62933	741.56433	196.59807	422.76309	653.34192	112.35660	371.81335	717.12079	
1317	13.160	232.10713	453.64240	741.55896	196.56152	422.80441	653.35474	112.40018	371.92700	717.16968	
1318	13.170	232.10027	453.65497	741.54852	196.52570	422.84076	653.36273	112.43948	372.03287	717.22906	
1319	13.180	232.08949	453.66949	741.53577	196.49271	422.87030	653.36743	112.47449	372.12897	717.29449	
1320	13.190	232.07579	453.68762	741.52325	196.46266	422.89255	653.37146	112.50384	372.21075	717.35852	
1321	13.200	232.06142	453.71039	741.51276	196.43466	422.90811	653.37738	112.52663	372.27368	717.41534	
1322	13.210	232.04858	453.73865	741.50531	196.40799	422.91766	653.38702	112.54319	372.31580	717.46252	
1323	13.220	232.03888	453.77252	741.50116	196.38365	422.92120	653.40167	112.55515	372.33807	717.50128	
1324	13.230	232.03316	453.81110	741.49988	196.36494	422.91779	653.42084	112.56572	372.34311	717.53540	
1325	13.240	232.03140	453.85287	741.50031	196.35564	422.90665	653.44281	112.57932	372.33435	717.56970	
1326	13.250	232.03371	453.89597	741.50183	196.35693	422.88882	653.46472	112.60038	372.31509	717.60779	
1327	13.260	232.04118	453.93726	741.50452	196.36678	422.86749	653.48407	112.63123	372.28757	717.65051	
1328	13.270	232.05464	453.97360	741.50891	196.38173	422.84659	653.49902	112.67102	372.25153	717.69556	
1329	13.280	232.07285	454.00317	741.51453	196.39964	422.82889	653.50922	112.71749	372.20425	717.73962	
1330	13.290	232.09299	454.02548	741.52057	196.42078	422.81512	653.51532	112.76882	372.14243	717.78003	
1331	13.300	232.11244	454.04059	741.52618	196.44724	422.80444	653.51880	112.82330	372.06387	717.81500	
1332	13.310	232.13004	454.04883	741.53143	196.48186	422.79526	653.52148	112.87778	371.97006	717.84344	
1333	13.320	232.14635	454.05051	741.53711	196.52672	422.78564	653.52545	112.92818	371.86792	717.86523	
1334	13.330	232.16278	454.04529	741.54468	196.58208	422.77402	653.53265	112.97080	371.76776	717.88153	
1335	13.340	232.18022	454.03220	741.55573	196.64696	422.75916	653.54492	113.00331	371.67880	717.89417	
1336	13.350	232.19905	454.01001	741.57190	196.72087	422.74036	653.56366	113.02540	371.60657	717.90417	
1337	13.360	232.21959	453.97861	741.59460	196.80341	422.71796	653.58936	113.03876	371.55301	717.91211	
1338	13.370	232.24153	453.94022	741.62463	196.89194	422.69388	653.62091	113.04613	371.51782	717.91797	
1339	13.380	232.26376	453.89987	741.66132	196.98141	422.67114	653.65613	113.05040	371.49954	717.92224	
1340	13.390	232.28551	453.86392	741.70337	197.06758	422.65274	653.69348	113.05411	371.49628	717.92566	
1341	13.400	232.30620	453.83835	741.75024	197.14996	422.64029	653.73297	113.05912	371.50629	717.92975	
1342	13.410	232.32442	453.82867	741.80176	197.23119	422.63391	653.77496	113.06641	371.52829	717.93616	
1343	13.420	232.33875	453.83832	741.85809	197.31358	422.63229	653.81976	113.07578	371.56082	717.94659	
1344	13.430	232.34941	453.86594	741.91870	197.39633	422.63275	653.86627	113.08592	371.60217	717.96265	
1345	13.440	232.35768	453.90479	741.98114	197.47571	422.63251	653.91211	113.09557	371.65173	717.98535	
1346	13.450	232.36363	453.94592	742.03992	197.54779	422.63031	653.95483	113.10435	371.71005	718.01514	
1347	13.460	232.36464	453.98294	742.08826	197.60979	422.62708	653.99255	113.11298	371.77682	718.05157	
1348	13.470	232.35664	454.01382	742.12097	197.66016	422.62521	654.02411	113.12299	371.84912	718.09406	
1349	13.480	232.33682	454.03946	742.13611	197.69930	422.62735	654.04980	113.13528	371.92123	718.14087	
1350	13.490	232.30476	454.06195	742.13495	197.72955	422.63531	654.07123	113.14823	371.98541	718.18823	
